<?xml version="1.0" standalone="no"?>
<!DOCTYPE svg PUBLIC "-//W3C//DTD SVG 20010904//EN"
 "http://www.w3.org/TR/2001/REC-SVG-20010904/DTD/svg10.dtd">
<svg version="1.0" xmlns="http://www.w3.org/2000/svg"
 width="758.000000pt" height="758.000000pt" viewBox="0 0 758.000000 758.000000"
 preserveAspectRatio="xMidYMid meet">
<metadata>
Created by potrace 1.14, written by Peter Selinger 2001-2017
</metadata>
<g transform="translate(0.000000,758.000000) scale(0.100000,-0.100000)"
fill="#000000" stroke="none">
<path d="M732 4968 l3 -2613 37 -138 c69 -255 175 -490 301 -670 26 -38 44
-73 41 -79 -4 -6 -2 -8 3 -5 6 4 23 -10 39 -31 57 -75 111 -136 184 -208 142
-139 164 -159 156 -144 -6 13 -6 13 6 0 7 -9 47 -40 88 -69 41 -30 76 -58 78
-63 2 -4 8 -8 12 -8 18 0 130 -77 123 -84 -4 -4 1 -4 11 0 14 5 17 4 12 -4 -5
-8 0 -12 12 -12 11 0 36 -11 56 -25 20 -13 36 -23 36 -20 0 3 45 -16 236 -101
21 -9 41 -18 44 -19 3 -1 21 -8 40 -17 19 -9 69 -30 110 -48 41 -17 99 -43
129 -57 29 -14 70 -31 90 -38 20 -7 66 -27 102 -44 36 -17 69 -31 72 -31 4 0
40 -15 79 -33 40 -18 114 -51 165 -72 51 -21 89 -43 86 -48 -3 -6 -1 -7 4 -4
10 7 55 -10 153 -56 25 -11 47 -21 50 -22 49 -14 60 -19 60 -26 0 -5 3 -8 8
-7 4 1 29 -8 56 -20 27 -12 50 -22 53 -22 2 0 23 -9 47 -20 170 -77 233 -100
274 -100 32 0 85 18 204 70 88 39 163 68 168 65 5 -3 12 -1 15 5 8 12 150 80
169 80 6 0 21 6 32 14 11 8 50 27 87 41 37 15 83 35 103 46 20 10 41 16 45 13
5 -3 9 0 9 5 0 6 4 11 10 11 5 0 33 11 62 24 111 51 151 66 161 59 5 -3 7 -2
4 4 -8 12 141 75 157 66 6 -3 8 -2 3 2 -9 11 213 106 228 98 5 -4 7 -3 3 2 -5
5 70 41 165 82 94 40 203 89 241 108 38 19 73 32 79 28 6 -3 7 -2 4 4 -4 5 6
16 21 24 15 8 57 33 94 56 36 23 69 39 74 35 4 -4 4 -2 1 4 -8 15 40 47 55 38
6 -4 8 -3 4 4 -3 6 6 20 21 31 16 12 41 31 58 44 47 35 118 100 162 147 27 27
45 40 53 35 9 -5 11 -4 6 4 -5 7 7 27 28 49 20 20 68 80 107 132 39 52 76 94
81 92 5 -1 7 2 3 7 -3 6 16 45 43 88 136 219 236 496 282 778 20 117 20 181
20 2648 l0 2527 -3060 0 -3060 0 2 -2612z"/>
</g>
</svg>
